<svg id="Capa_1" enable-background="new 0 0 512 512" height="512" viewBox="0 0 512 512" width="512" xmlns="http://www.w3.org/2000/svg"><g><path d="m415.949 363.039v-59.61c0-5.523-4.478-10-10-10h-59.575c-1.521-20.558-18.729-36.818-39.662-36.818s-38.14 16.26-39.661 36.818h-48.447v-56.223c0-5.523-4.478-10-10-10h-7.029c-10.901 0-19.771-8.876-19.771-19.786s8.869-19.786 19.771-19.786h7.029c5.522 0 10-4.477 10-10v-69.5c0-5.523-4.486-10-10.009-10h-198.475c-5.522 0-10 4.477-10 10v393.866c0 5.523 4.478 10 10 10h395.829c5.522 0 10-4.477 10-10v-59.61c20.549-1.524 36.801-18.737 36.801-39.676s-16.252-38.151-36.801-39.675zm-217.345-244.904v49.61c-20.549 1.524-36.8 18.737-36.8 39.676s16.251 38.152 36.8 39.676v46.333h-59.475c-5.522 0-10 4.477-10 10v7.033c0 10.91-8.869 19.786-19.771 19.786s-19.771-8.876-19.771-19.786v-7.033c0-5.523-4.478-10-10-10h-59.467v-175.295zm-178.484 195.294h49.575c1.521 20.558 18.729 36.818 39.662 36.818s38.141-16.26 39.662-36.818h49.575v59.5c0 5.523 4.478 10 10 10h7.029c10.901 0 19.771 8.876 19.771 19.786s-8.869 19.786-19.771 19.786h-7.029c-5.522 0-10 4.477-10 10v59.499h-178.474zm392.859 109.071h-7.029c-5.522 0-10 4.477-10 10v59.5h-177.355v-49.61c20.549-1.524 36.8-18.737 36.8-39.676s-16.251-38.152-36.8-39.676v-49.61h58.347c5.522 0 10-4.477 10-10v-7.033c0-10.91 8.869-19.786 19.771-19.786s19.771 8.876 19.771 19.786v7.033c0 5.523 4.478 10 10 10h59.466v59.5c0 5.523 4.478 10 10 10h7.029c10.902 0 19.771 8.876 19.771 19.786s-8.869 19.786-19.771 19.786z"/><path d="m501.88 0h-198.475c-5.522 0-10 4.477-10 10v59.61c-20.549 1.524-36.8 18.737-36.8 39.676s16.251 38.152 36.8 39.676v59.619c0 5.523 4.478 10 10 10h69.466c5.522 0 10-4.477 10-10v-7.033c0-10.91 8.869-19.786 19.771-19.786s19.771 8.876 19.771 19.786v7.033c0 5.523 4.478 10 10 10h69.466c5.522 0 10-4.486 10-10.009v-198.572c.001-5.523-4.477-10-9.999-10zm-10 198.581h-49.575c-1.521-20.558-18.729-36.818-39.662-36.818s-38.141 16.26-39.662 36.818h-49.575v-59.509c0-5.523-4.478-10-10-10h-7.029c-10.901 0-19.771-8.876-19.771-19.786s8.869-19.786 19.77-19.786h7.029c5.522 0 10-4.477 10-10v-59.5h178.475z"/></g></svg>