<svg height="496pt" viewBox="0 0 496 496" width="496pt" xmlns="http://www.w3.org/2000/svg"><path d="m128 248c0-22.054688-17.945312-40-40-40s-40 17.945312-40 40 17.945312 40 40 40 40-17.945312 40-40zm-40 24c-13.230469 0-24-10.769531-24-24s10.769531-24 24-24 24 10.769531 24 24-10.769531 24-24 24zm0 0"/><path d="m496 160h-48v-160h-299.3125l-68.6875 68.6875v91.3125h-13.769531l-6.542969 19.648438-18.519531-9.265626-30.785157 30.785157 9.257813 18.511719-19.640625 6.550781v43.53125l19.640625 6.550781-9.257813 18.511719 30.785157 30.785156 18.519531-9.265625 6.542969 19.65625h13.769531v160h368v-160h48zm-352-132.6875v36.6875h-36.6875zm-72.359375 274.304688-3.5625-1.34375c-1.015625-.386719-2.015625-.785157-3-1.226563l-3.460937-1.550781-17.296876 8.65625-14.472656-14.472656 8.648438-17.296876-1.550782-3.460937c-.449218-1-.839843-2.011719-1.242187-3.035156l-1.351563-3.527344-18.351562-6.128906v-20.46875l18.351562-6.121094 1.351563-3.527344c.402344-1.023437.800781-2.042969 1.242187-3.035156l1.550782-3.460937-8.648438-17.296876 14.472656-14.472656 17.296876 8.648438 3.460937-1.550782c.984375-.441406 1.984375-.839843 3-1.226562l3.5625-1.34375 6.128906-18.375h20.46875l6.128907 18.382812 3.5625 1.34375c1.015624.386719 2.015624.785157 3 1.226563l3.460937 1.550781 17.296875-8.648437 14.472656 14.472656-8.648437 17.296875 1.550781 3.464844c.449219 1 .839844 2.007812 1.242188 3.03125l1.351562 3.527344 18.34375 6.121093v20.46875l-18.351562 6.121094-1.351563 3.527344c-.402344 1.023437-.800781 2.042969-1.242187 3.035156l-1.550782 3.460937 8.648438 17.296876-14.472656 14.472656-17.296876-8.648438-3.460937 1.550782c-.984375.441406-1.984375.839843-3 1.226562l-3.5625 1.34375-6.128906 18.375h-20.46875zm408.359375 18.382812h-304v16h256v144h-336v-144h13.769531l6.542969-19.648438 18.519531 9.265626 30.785157-30.785157-9.257813-18.511719 19.640625-6.550781v-43.53125l-19.640625-6.550781 9.257813-18.511719-30.785157-30.785156-18.519531 9.265625-6.542969-19.65625h-13.769531v-80h64v-64h272v144h-256v16h304zm0 0"/><path d="m192 192h16v48h-16zm0 0"/><path d="m288 192h16v48h-16zm0 0"/><path d="m320 192h16v48h-16zm0 0"/><path d="m416 192h16v48h-16zm0 0"/><path d="m448 192h16v48h-16zm0 0"/><path d="m248 240c13.230469 0 24-10.769531 24-24s-10.769531-24-24-24-24 10.769531-24 24 10.769531 24 24 24zm0-32c4.414062 0 8 3.59375 8 8s-3.585938 8-8 8-8-3.59375-8-8 3.585938-8 8-8zm0 0"/><path d="m376 240c13.230469 0 24-10.769531 24-24s-10.769531-24-24-24-24 10.769531-24 24 10.769531 24 24 24zm0-32c4.414062 0 8 3.59375 8 8s-3.585938 8-8 8-8-3.59375-8-8 3.585938-8 8-8zm0 0"/><path d="m448 256h16v48h-16zm0 0"/><path d="m352 256h16v48h-16zm0 0"/><path d="m256 256h16v48h-16zm0 0"/><path d="m224 256h16v48h-16zm0 0"/><path d="m192 256h16v48h-16zm0 0"/><path d="m384 280c0 13.230469 10.769531 24 24 24s24-10.769531 24-24-10.769531-24-24-24-24 10.769531-24 24zm24-8c4.414062 0 8 3.59375 8 8s-3.585938 8-8 8-8-3.59375-8-8 3.585938-8 8-8zm0 0"/><path d="m312 304c13.230469 0 24-10.769531 24-24s-10.769531-24-24-24-24 10.769531-24 24 10.769531 24 24 24zm0-32c4.414062 0 8 3.59375 8 8s-3.585938 8-8 8-8-3.59375-8-8 3.585938-8 8-8zm0 0"/><path d="m400 32h16v16h-16zm0 0"/><path d="m272 32h112v16h-112zm0 0"/><path d="m176 64h240v16h-240zm0 0"/><path d="m112 96h16v16h-16zm0 0"/><path d="m144 96h272v16h-272zm0 0"/><path d="m112 128h304v16h-304zm0 0"/><path d="m112 352h16v16h-16zm0 0"/><path d="m144 352h272v16h-272zm0 0"/><path d="m208 384h208v16h-208zm0 0"/><path d="m112 384h80v16h-80zm0 0"/><path d="m112 416h304v16h-304zm0 0"/><path d="m400 448h16v16h-16zm0 0"/><path d="m112 448h272v16h-272zm0 0"/></svg>