<?xml version="1.0" encoding="iso-8859-1"?>
<!-- Generator: Adobe Illustrator 16.0.0, SVG Export Plug-In . SVG Version: 6.00 Build 0)  -->
<!DOCTYPE svg PUBLIC "-//W3C//DTD SVG 1.1//EN" "http://www.w3.org/Graphics/SVG/1.1/DTD/svg11.dtd">
<svg version="1.1" id="Capa_1" xmlns="http://www.w3.org/2000/svg" xmlns:xlink="http://www.w3.org/1999/xlink" x="0px" y="0px"
	 width="259.287px" height="259.287px" viewBox="0 0 259.287 259.287" style="enable-background:new 0 0 259.287 259.287;"
	 xml:space="preserve">
<g>
	<g>
		<path d="M189.091,104.531c-0.973-0.436-1.97-0.997-2.696-1.543L147.003,73.31v15.003c0,7.305-5.879,13.243-13.181,13.331
			c-33.488,0.387-58.7,10.115-74.942,28.875c-9.011,10.4-14.445,22.506-17.679,34.119c27.184-23.089,61.606-26.361,78.903-26.361
			c9.02,0,14.868,0.816,15.508,0.906c6.545,0.955,11.391,6.576,11.391,13.193v20.548l66.611-49.422l-22.212-16.735
			C190.539,106.12,189.769,105.363,189.091,104.531z M157.085,152.903v-0.517c0-11.529-8.593-21.485-20.152-23.19
			c-2.206-0.312-8.244-0.997-16.822-0.997c-12.895,0-33.63,1.67-54.775,10.311c0.381-0.463,0.769-0.931,1.168-1.388
			c14.279-16.504,36.974-25.04,67.448-25.403c11.106-0.129,20.401-8.104,22.63-18.576l23.73,17.876
			c0.847,0.64,1.747,1.204,2.594,1.672c0.775,0.775,1.586,1.48,2.438,2.123l11.451,8.626L157.085,152.903z"/>
		<path d="M249.967,104.895L216.839,79.93c-2.744-3.309-6.329-6.008-10.683-8.067l-58.402-44c-4.023-3.032-9.038-4.711-14.085-4.711
			c-3.605,0-7.208,0.855-10.436,2.459c-7.992,3.979-12.967,12.01-12.967,20.951v19.951c-33.408,4.417-60.009,17.834-79.167,39.95
			C-7.161,150.657,0.501,213.155,0.853,215.815c1.42,10.683,9.898,18.999,20.689,20.194c0.844,0.084,1.69,0.126,2.528,0.126
			c9.764,0,18.588-6.167,21.962-15.331c12.19-33.182,39.839-43.391,64.228-45.401v23.989c0,8.898,4.93,16.909,12.88,20.908
			c3.255,1.64,6.894,2.492,10.529,2.492c5.06,0,9.875-1.586,13.946-4.605l102.208-75.823c5.891-4.371,9.439-11.373,9.463-18.705
			C259.33,116.337,255.834,109.323,249.967,104.895z M243.825,134.3l-102.201,75.823c-4.054,2.996-9.443,3.459-13.943,1.194
			c-4.495-2.27-7.338-6.881-7.338-11.913v-34.468c-0.078,0-0.153,0-0.231,0c-24.007,0-66.779,6.798-83.526,52.397
			c-1.946,5.285-6.981,8.731-12.508,8.731c-0.486,0-0.985-0.024-1.477-0.072c-6.092-0.679-10.944-5.429-11.749-11.505
			c-0.321-2.456-7.551-60.504,27.877-101.427c19.131-22.089,46.549-34.669,81.623-37.485V46.561c0-5.05,2.853-9.68,7.389-11.935
			c4.512-2.246,9.932-1.753,13.967,1.285l59.285,44.675c4.233,1.82,6.983,4.177,8.749,6.594l34.173,25.751
			c3.356,2.531,5.333,6.5,5.314,10.698C249.205,127.827,247.206,131.79,243.825,134.3z"/>
	</g>
</g>
<g>
</g>
<g>
</g>
<g>
</g>
<g>
</g>
<g>
</g>
<g>
</g>
<g>
</g>
<g>
</g>
<g>
</g>
<g>
</g>
<g>
</g>
<g>
</g>
<g>
</g>
<g>
</g>
<g>
</g>
</svg>
